<svg width="2560.0000000000005" height="211" xmlns="http://www.w3.org/2000/svg">
 <defs>
  <linearGradient id="imagebot_12" y2="1">
   <stop offset="0" stop-color="#e470e6"/>
   <stop offset="1" stop-color="#a849a3"/>
  </linearGradient>
 </defs>
 <g>
  <title>Layer 1</title>
  <g transform="translate(-40.7324 -53.952)" id="imagebot_2">
   <path fill="url(#imagebot_12)" id="imagebot_3" d="M1742.073,193.971C1733.918,194.524 1733.255,207.989 1741.014,209.727C1748.916,211.702 1757.165,210.501 1765.209,210.754C2033.866,210.738 2302.523,210.738 2571.18,210.754C2578.86,210.564 2586.667,211.512 2594.237,209.995C2598.093,209.252 2600.779,205.444 2600.732,201.651C2600.637,196.104 2595.28,193.038 2590.191,193.544C2317.315,193.591 2044.422,193.544 1771.53,193.575C1761.732,193.829 1751.855,192.849 1742.073,193.971z"/>
   <path fill="url(#imagebot_12)" id="imagebot_4" d="M899.392,193.971C907.547,194.524 908.21,207.989 900.451,209.727C892.549,211.702 884.3,210.501 876.256,210.754C607.599,210.738 338.942,210.738 70.285,210.754C62.605,210.564 54.798,211.512 47.228,209.995C43.372,209.252 40.686,205.444 40.733,201.651C40.828,196.104 46.185,193.038 51.274,193.544C324.151,193.591 597.043,193.544 869.935,193.575C879.733,193.829 889.61,192.849 899.392,193.971z"/>
   <path fill="url(#imagebot_12)" id="imagebot_5" d="M1686.018,201.383C1685.275,213.552 1698.961,224.14 1710.466,219.352C1719.632,216.507 1724.816,206.235 1722.271,197.101C1720.422,190.084 1714.038,184.221 1706.657,183.826C1696.274,182.008 1685.939,190.874 1686.018,201.383zM1713.753,198.997C1716.534,205.397 1709.265,213.173 1702.612,211.561C1698.124,210.565 1694.536,206.188 1694.679,201.558C1695.137,196.801 1699.215,192.882 1703.75,191.966C1708.079,191.996 1712.331,194.856 1713.753,198.997z"/>
   <path fill="url(#imagebot_12)" id="imagebot_6" d="M955.447,201.383C956.19,213.552 942.504,224.14 930.999,219.352C921.833,216.507 916.649,206.235 919.194,197.101C921.043,190.084 927.427,184.221 934.808,183.826C945.191,182.008 955.526,190.874 955.447,201.383zM927.712,198.997C924.931,205.397 932.2,213.173 938.853,211.561C943.341,210.565 946.929,206.188 946.786,201.558C946.328,196.801 942.25,192.882 937.715,191.966C933.386,191.996 929.134,194.856 927.712,198.997z"/>
   <path fill="url(#imagebot_12)" id="imagebot_7" d="M1320.732,237.401C1325.103,237.146 1329.465,236.766 1333.808,236.261C1382.261,231.33 1428.249,212.287 1469.606,187.176C1490.15,174.928 1508.451,159.331 1528.932,146.972C1549.255,134.566 1572.059,124.895 1596.144,124.152C1622.188,124.642 1647.442,140.208 1659.357,163.407C1668.428,180.87 1669.282,201.778 1664.161,220.568C1661.158,232.263 1655.801,243.752 1646.762,252.001C1638.244,259.744 1626.534,263.427 1615.108,263.016C1599.652,263.458 1582.885,257.311 1574.414,243.752C1564.663,228.66 1568.63,205.476 1584.607,196.263C1595.827,189.61 1609.956,191.506 1621.239,196.958C1626.723,199.502 1628.034,206.013 1632.096,210.043C1633.36,205.887 1634.972,201.493 1633.692,197.179C1631.843,190.352 1626.406,185.042 1620.275,181.818C1610.809,176.634 1599.399,176.002 1589.016,178.404C1574.335,181.976 1562.561,194.729 1559.78,209.521C1557.884,220.441 1559.164,232.23 1565.074,241.791C1572.96,255.493 1588.605,263.252 1603.982,264.564C1615.155,264.832 1626.707,265.575 1637.39,261.593C1653.636,256.22 1666.405,242.566 1671.968,226.541C1678.274,208.241 1678.558,187.839 1672.347,169.475C1664.556,146.244 1645.133,127.802 1622.124,119.789C1610.035,115.001 1596.728,115.364 1583.991,116.423C1553.348,121.117 1526.372,137.9 1501.972,156.153C1486.643,167.879 1470.981,179.226 1454.278,188.976C1413.679,212.77 1367.961,230.059 1320.733,232.704C1273.505,230.06 1227.786,212.771 1187.188,188.976C1170.484,179.225 1154.823,167.878 1139.494,156.153C1115.094,137.9 1088.118,121.117 1057.475,116.423C1044.737,115.364 1031.431,115.001 1019.341,119.789C996.331,127.801 976.909,146.244 969.118,169.475C962.907,187.839 963.192,208.241 969.497,226.541C975.06,242.566 987.829,256.22 1004.075,261.593C1014.758,265.576 1026.31,264.833 1037.483,264.564C1052.86,263.252 1068.505,255.493 1076.391,241.791C1082.301,232.23 1083.582,220.441 1081.685,209.521C1078.904,194.729 1067.13,181.976 1052.449,178.404C1042.066,176.002 1030.656,176.634 1021.19,181.818C1015.058,185.042 1009.622,190.352 1007.773,197.179C1006.493,201.493 1008.105,205.887 1009.369,210.043C1013.431,206.013 1014.742,199.502 1020.226,196.958C1031.51,191.506 1045.638,189.61 1056.858,196.263C1072.835,205.476 1076.802,228.66 1067.051,243.752C1058.58,257.311 1041.813,263.458 1026.357,263.016C1014.931,263.427 1003.221,259.744 994.703,252.001C985.664,243.752 980.306,232.263 977.304,220.568C972.184,201.778 973.037,180.87 982.108,163.407C994.024,140.208 1019.277,124.641 1045.321,124.152C1069.405,124.895 1092.21,134.566 1112.533,146.972C1133.014,159.33 1151.315,174.928 1171.859,187.176C1213.216,212.287 1259.204,231.33 1307.657,236.261C1312,236.766 1316.361,237.146 1320.732,237.401zM1320.732,221.02C1344.557,220.265 1368.744,211.964 1385.691,194.809C1400.23,179.669 1410.186,160.579 1426.132,146.719C1434.208,139.118 1443.848,133.618 1452.966,127.455C1443.215,126.554 1433.67,123.994 1423.872,123.457C1409.001,123.299 1393.577,123.884 1379.86,130.284C1359.521,139.434 1345.013,157.703 1324.659,166.79C1323.363,167.32 1322.054,167.817 1320.733,168.283C1319.412,167.817 1318.103,167.319 1316.807,166.79C1296.452,157.703 1281.945,139.435 1261.606,130.284C1247.889,123.883 1232.465,123.299 1217.594,123.457C1207.796,123.994 1198.251,126.554 1188.5,127.455C1197.619,133.618 1207.258,139.118 1215.334,146.719C1231.279,160.578 1241.235,179.669 1255.775,194.809C1272.72,211.964 1296.907,220.264 1320.732,221.02zM1320.732,178.946C1326.772,177.008 1332.557,174.363 1337.822,170.772C1355.98,159.172 1368.86,140.256 1389.183,131.959C1407.357,125.243 1427.411,124.026 1446.17,129.051C1432.911,137.506 1419.984,146.719 1409.174,158.24C1394.429,174.012 1381.139,192.612 1360.61,201.352C1348.009,206.816 1334.453,209.939 1320.731,210.792C1307.01,209.939 1293.453,206.817 1280.852,201.352C1260.323,192.613 1247.033,174.012 1232.288,158.24C1221.478,146.719 1208.551,137.506 1195.292,129.051C1214.051,124.026 1234.105,125.242 1252.279,131.959C1272.602,140.256 1285.482,159.172 1303.64,170.772C1308.907,174.364 1314.693,177.009 1320.732,178.946zM1320.732,161.979C1332.394,153.809 1341.468,141.92 1346.403,128.546C1353.689,108.887 1352.819,84.707 1339.134,67.988C1334.223,61.823 1327.838,57.108 1320.732,53.952C1313.626,57.108 1307.241,61.822 1302.33,67.988C1288.644,84.708 1287.775,108.887 1295.061,128.546C1299.997,141.919 1309.07,153.809 1320.732,161.979zM1320.732,57.922C1329.168,62.193 1336.352,68.847 1340.714,77.359C1346.798,88.089 1347.415,100.859 1346.119,112.869C1343.693,129.859 1334.278,145.751 1320.732,156.221C1307.186,145.751 1297.771,129.859 1295.345,112.869C1294.049,100.859 1294.666,88.089 1300.75,77.359C1305.112,68.847 1312.296,62.193 1320.732,57.922z"/>
   <path fill="url(#imagebot_12)" id="imagebot_8" d="M1529.28,230.477C1526.135,222.86 1518.692,218.325 1511.976,214.2C1490.231,201.763 1463.444,202.189 1440.055,209.411C1427.523,213.441 1414.88,218.214 1404.371,226.368C1435.583,225.562 1463.634,241.049 1493.549,247.26C1502.715,248.951 1512.497,248.682 1521.173,245.111C1526.752,242.914 1531.682,236.609 1529.28,230.477zM1495.698,238.047C1469.006,233.243 1443.167,222.307 1415.654,223.097C1432.879,216.554 1451.259,212.256 1469.749,212.461C1488.397,213.188 1508.42,219.13 1520.541,234.143C1513.161,238.695 1504.121,239.359 1495.698,238.047z"/>
   <path fill="url(#imagebot_12)" id="imagebot_9" d="M1112.185,230.477C1115.33,222.86 1122.773,218.325 1129.489,214.2C1151.234,201.763 1178.021,202.189 1201.41,209.411C1213.942,213.441 1226.585,218.214 1237.094,226.368C1205.882,225.562 1177.831,241.049 1147.916,247.26C1138.75,248.951 1128.968,248.682 1120.292,245.111C1114.713,242.914 1109.782,236.609 1112.185,230.477zM1145.767,238.047C1172.459,233.243 1198.298,222.307 1225.811,223.097C1208.586,216.554 1190.206,212.256 1171.716,212.461C1153.068,213.188 1133.045,219.13 1120.924,234.143C1128.304,238.695 1137.343,239.359 1145.767,238.047z"/>
  </g>
 </g>
</svg>